<svg xmlns="http://www.w3.org/2000/svg" xmlns:xlink="http://www.w3.org/1999/xlink" version="1.1" width="20" height="25" viewBox="0 0 256 256" xml:space="preserve">
<desc>Created with Fabric.js 1.7.22</desc>
<defs>
</defs>
<g transform="translate(128 128) scale(0.72 0.72)" style="">
	<g style="stroke: none; stroke-width: 0; stroke-dasharray: none; stroke-linecap: butt; stroke-linejoin: miter; stroke-miterlimit: 10; fill: none; fill-rule: nonzero; opacity: 1;" transform="translate(-175.05 -175.05000000000004) scale(3.89 3.89)" >
	<path d="M 32.263 12.683 c 1.094 0 2.188 0.416 3.02 1.247 l 9.014 9.014 c 0.808 0.808 1.252 1.881 1.252 3.022 s -0.445 2.215 -1.252 3.022 l -5.364 5.364 l 46.793 0 c 2.357 0 4.275 1.918 4.275 4.274 l 0 12.744 c 0 2.357 -1.917 4.274 -4.275 4.274 l -46.793 0 l 5.364 5.364 c 0.808 0.807 1.252 1.881 1.252 3.022 c 0 1.143 -0.445 2.216 -1.253 3.024 l -9.011 9.01 c -1.666 1.666 -4.379 1.667 -6.045 0 L 1.244 48.071 C 0.436 47.263 -0.013 46.149 0 44.999 c -0.014 -1.15 0.436 -2.264 1.244 -3.071 L 29.24 13.932 C 30.074 13.099 31.168 12.683 32.263 12.683 z M 38.834 25.966 l -6.572 -6.572 L 6.658 44.999 l 25.605 25.604 l 6.572 -6.571 l -9.266 -9.266 c -0.858 -0.858 -1.115 -2.148 -0.65 -3.269 c 0.464 -1.121 1.558 -1.852 2.771 -1.852 l 52.311 0 v -9.293 l -52.311 0 c -1.214 0 -2.308 -0.73 -2.771 -1.852 c -0.465 -1.121 -0.208 -2.412 0.65 -3.27 L 38.834 25.966 z M 5.487 43.829 L 5.487 43.829 L 5.487 43.829 z" style="stroke: none; stroke-width: 1; stroke-dasharray: none; stroke-linecap: butt; stroke-linejoin: miter; stroke-miterlimit: 10; fill: rgb(255,255,255); fill-rule: nonzero; opacity: 1;" transform=" matrix(1 0 0 1 0 0) " stroke-linecap="round" />
</g>
</g>
</svg>